# xmcd
#
# Track frame offsets: 
#        150
#        20047
#        31195
#        44170
#        57350
#        72435
#        89590
#        108612
#        124510
#        143717
#        154597
#        172325
#        184935
#        205645
#        219440
#        233350
#        244040
#        261040
#        274285
#        295510
#
# Disc length: 4479 seconds
#
# Revision: 5
# Processed by: cddbd v1.5.2PL0 Copyright (c) Steve Scherf et al.
# Submitted via: ExactAudioCopy v0.99pb5
#
DISCID=29117d14
DTITLE=John Mayall - London Blues (1964-1969) CD 2
DYEAR=1992
DGENRE=Blues
TTITLE0=All My Life
TTITLE1=Ridin' On The L and N
TTITLE2=Eagle Eye
TTITLE3=It Hurts Me Too
TTITLE4=Double Trouble
TTITLE5=Sonny Boy Blow
TTITLE6=Broken Wings
TTITLE7=Oh, Pretty Woman
TTITLE8=The Death Of J.B. Lenoir
TTITLE9=Man Of Stone
TTITLE10=Checkin' On My Baby
TTITLE11=Suspicions (Part One)
TTITLE12=Jenny
TTITLE13=Picture On The Wall
TTITLE14=No Reply
TTITLE15=She's Too Young
TTITLE16=Sandy
TTITLE17=Walking On Sunset
TTITLE18=The Bear
TTITLE19=Fly Tomorrow
EXTD=
EXTT0=
EXTT1=
EXTT2=
EXTT3=
EXTT4=
EXTT5=
EXTT6=
EXTT7=
EXTT8=
EXTT9=
EXTT10=
EXTT11=
EXTT12=
EXTT13=
EXTT14=
EXTT15=
EXTT16=
EXTT17=
EXTT18=
EXTT19=
PLAYORDER=
